# xmcd
#
# Track frame offsets:
#	151
#	27912
#	43919
#	63021
#	76986
#	97397
#	116414
#	142015
#	157292
#	179345
#	195420
#	216261
#	233752
#	257704
#
# Disc length: 3723
#
# Revision: 1
# Processed by: cddbd v1.5.1PL0 Copyright (c) Steve Scherf et al.
# Submitted via: Feurio! 1.61 - http://www.feurio.com
# Normalized: r0:DSETVAR1
#
DISCID=c90e890e
DTITLE=Various Artist - Real Steppin' Vol #3
DYEAR=1900
DGENRE=
TTITLE0=Amel Larrieux - Get Up (remix)
TTITLE1=Brian Culbertson - Gettin' Over You
TTITLE2=Kevon Edmonds - Love Will Be Waiting
TTITLE3=Chris Gains - Lost In You
TTITLE4=Brecker Brothers - When It Was
TTITLE5=Smoke -N- Function - Seven Thirty
TTITLE6=Jazz Masters - Good Lovin'
TTITLE7=Richmond Extension - Everything's Comin' Up Love
TTITLE8=Tower Of Power - Somedays Were Meant For Rain
TTITLE9=Case - Think Of You
TTITLE10=Paul Hardcastle - Money
TTITLE11=Victor Fields - Black Orpheus
TTITLE12=Braxton Brothers - Cand We Try Again
TTITLE13=Paul Russo - I Can Show You Love
EXTD=
EXTT0=
EXTT1=
EXTT2=
EXTT3=
EXTT4=
EXTT5=
EXTT6=
EXTT7=
EXTT8=
EXTT9=
EXTT10=
EXTT11=
EXTT12=
EXTT13=
PLAYORDER=
